PathFileType	4	(X/Y/Z)	E:\Qualisys_Data\Carbon_Farble_Plate\Data\Amateur_Runner\S14\T3\S14T3V12_c3d.trc
DataRate	CameraRate	NumFrames	NumMarkers	Units	OrigDataRate	OrigDataStartFrame	OrigNumFrames
200.000000	200.000000	4	39	mm	200.000000	204	327
Frame#	Time	LSHO			RSHO			LICST			RICST			LASIS			LHEEL			RASIS			LTROC			RTROC			SACR			LTH1			LSK4			LTH2			LTH3			RHM5			LSK2			LTH4			RTH1			LTOE			RTH2			RTH3			RTH4			LLEP			RLEP			LSK1			LSK3			RSK1			LHM5			RSK2			LFT1			RSK3			RSK4			LLME			RLME			RTOE			RHEEL			RFT1			RFT2			LFT2			
		X1	Y1	Z1	X2	Y2	Z2	X3	Y3	Z3	X4	Y4	Z4	X5	Y5	Z5	X6	Y6	Z6	X7	Y7	Z7	X8	Y8	Z8	X9	Y9	Z9	X10	Y10	Z10	X11	Y11	Z11	X12	Y12	Z12	X13	Y13	Z13	X14	Y14	Z14	X15	Y15	Z15	X16	Y16	Z16	X17	Y17	Z17	X18	Y18	Z18	X19	Y19	Z19	X20	Y20	Z20	X21	Y21	Z21	X22	Y22	Z22	X23	Y23	Z23	X24	Y24	Z24	X25	Y25	Z25	X26	Y26	Z26	X27	Y27	Z27	X28	Y28	Z28	X29	Y29	Z29	X30	Y30	Z30	X31	Y31	Z31	X32	Y32	Z32	X33	Y33	Z33	X34	Y34	Z34	X35	Y35	Z35	X36	Y36	Z36	X37	Y37	Z37	X38	Y38	Z38	X39	Y39	Z39	

205	1.02	422.8057250976562	1390.808349609375	-544.5154418945312	474.3533630371094	1385.450073242188	-240.7254028320312	396.5869750976562	937.3712768554688	-518.980712890625	445.9157409667969	952.2188110351562	-244.6374206542969	444.4536437988281	889.4464721679688	-499.2535095214844	159.7327270507812	307.2159423828125	-437.9419555664062	471.6094360351562	910.1094360351562	-266.1533813476562	320.27099609375	808.6065673828125	-527.4605712890625	336.7448425292969	827.8471069335938	-197.85888671875	280.5251159667969	938.1022338867188	-374.295166015625	484.9981079101562	627.640625	-558.5306396484375	338.8851928710938	400.6218566894531	-520.35986328125	421.7481689453125	591.9524536132812	-526.1725463867188	541.2907104492188	544.7164306640625	-547.2926025390625	300.0221862792969	55.66473388671875	-269.8594970703125	419.9090270996094	453.4055480957031	-542.9248657226562	473.0215454101562	508.2218017578125	-522.3198852539062	478.3760070800781	607.7163696289062	-223.1121673583984	301.8304443359375	87.80782318115234	-471.5279846191406	401.324462890625	607.4969482421875	-212.5680847167969	478.9768981933594	512.0983276367188	-258.7895202636719	397.1406860351562	509.1811828613281	-240.7034912109375	508.6218566894531	473.2251281738281	-547.20458984375	419.88427734375	439.1825561523438	-256.0330505371094	466.5466918945312	385.8949584960938	-538.2323608398438	382.2298889160156	331.8655395507812	-517.9969482421875	386.0816955566406	319.0855712890625	-263.0728759765625	250.299072265625	139.7374725341797	-529.8345336914062	311.8122253417969	361.1309509277344	-252.6555328369141	142.9221496582031	280.0383911132812	-410.9731140136719	326.4775390625	236.7554779052734	-283.9764709472656	262.7670593261719	280.6544494628906	-269.9936218261719	216.9015045166016	277.7060241699219	-496.0709228515625	190.2035522460938	126.6719741821289	-302.5985717773438	370.7994384765625	54.63928604125977	-340.7981262207031	120.633544921875	107.2281494140625	-358.0794982910156	126.6068954467773	76.2231216430664	-384.4894104003906	113.2159271240234	87.23822784423828	-333.8865661621094	137.8538970947266	290.5045166015625	-464.5088500976562
206	1.025	434.5997619628906	1394.558349609375	-544.5731811523438	491.4159545898438	1389.002197265625	-242.5041198730469	412.5169067382812	940.703369140625	-519.3973999023438	461.4688720703125	955.3497924804688	-244.89501953125	460.2005310058594	892.8678588867188	-498.85693359375	186.0542297363281	298.8821716308594	-437.8294677734375	487.0003051757812	912.9535522460938	-265.948974609375	337.2730102539062	812.8435668945312	-529.9877319335938	351.6637878417969	830.5867919921875	-198.0705871582031	296.1415710449219	941.3580322265624	-374.59033203125	503.9705810546875	632.774658203125	-557.8184814453125	361.2153015136719	398.757080078125	-519.809814453125	440.6988220214844	596.4973754882812	-527.1909790039062	560.6753540039062	550.60546875	-545.7796630859375	300.8808898925781	55.69746398925781	-269.5669860839844	440.487060546875	454.7151184082031	-541.74267578125	492.7876281738281	513.2849731445312	-521.6630859375	487.0325317382812	608.1522216796875	-223.5804443359375	336.764892578125	85.37425231933594	-472.5112915039062	409.9756469726562	609.7245483398438	-213.3715209960938	485.8744506835938	512.856689453125	-258.9262084960938	403.7892456054688	511.6834411621094	-241.5162811279297	529.205322265625	477.4856262207031	-545.9568481445312	424.8651123046875	441.4125061035156	-255.9324188232422	489.4590148925781	388.4244995117188	-537.046875	407.1643676757812	331.6590270996094	-517.8123168945312	389.744384765625	321.8450622558594	-262.4671630859375	282.91015625	135.2418670654297	-530.89453125	314.7239990234375	364.5474243164062	-251.9900360107422	168.777587890625	270.5841369628906	-411.5511474609375	329.4184265136719	239.5556335449219	-283.6600341796875	266.0428466796875	284.2211303710938	-269.9045104980469	243.5333557128906	271.0846862792969	-496.4515380859375	192.7540435791016	130.1241455078125	-302.4845886230469	371.4918212890625	54.61769866943359	-340.6479187011719	122.3745727539062	111.4417419433594	-357.3172912597656	128.3685455322266	80.72958374023438	-384.2419738769531	114.6655120849609	91.74126434326172	-333.4773254394531	163.156494140625	281.4355773925781	-465.5502319335938
207	1.03	446.9811096191406	1398.147583007812	-544.8637084960938	508.3101501464844	1392.68896484375	-244.4241638183594	428.3010864257812	944.607666015625	-519.4979248046875	477.5491333007812	958.1666259765624	-245.4342041015625	475.8159790039062	896.699462890625	-498.6539306640625	211.6171569824219	289.6534423828125	-438.8415222167969	502.4103393554688	915.727783203125	-266.1507263183594	353.8960876464844	817.3555908203125	-531.3949584960938	366.8462829589844	833.9340209960938	-197.755615234375	311.7031555175781	944.8160400390624	-374.6778259277344	522.8508911132812	638.0076904296875	-557.0936889648438	383.5537109375	397.1201782226562	-519.6121215820312	459.3353881835938	600.6470336914062	-527.3143310546875	580.1231079101562	556.3982543945312	-544.09912109375	302.0464782714844	55.57103729248047	-269.7746887207031	461.2197570800781	455.0671997070312	-540.6210327148438	511.8786926269531	518.3939208984375	-521.2293090820312	495.8554382324219	609.5082397460938	-224.0609283447266	371.3670349121094	83.23229217529297	-473.5650634765625	419.1343383789062	613.4840698242188	-213.542236328125	492.8769836425781	514.1087036132812	-259.3847351074219	410.7879943847656	514.6470336914062	-242.4344329833984	549.7762451171875	481.7131042480469	-544.2523803710938	430.1835327148438	444.017578125	-255.9783782958984	512.8045043945312	391.2729797363281	-536.5269165039062	431.8299865722656	330.6987915039062	-516.84765625	393.75244140625	324.7106018066406	-262.3474426269531	315.5731811523438	130.9661712646484	-531.83203125	320.4180603027344	368.1925354003906	-253.1239471435547	195.0654754638672	260.6605224609375	-413.0024108886719	332.582763671875	243.0460357666016	-282.8622436523438	269.9768371582031	288.297119140625	-270.0391540527344	270.4765014648438	265.2964172363281	-497.7255249023438	194.9795684814453	133.6628570556641	-301.6781311035156	372.3503112792969	54.06601333618164	-340.5903625488281	124.7614898681641	116.354377746582	-356.9497375488281	130.2680358886719	85.83187103271484	-383.55126953125	117.5022354125977	96.60108184814452	-332.6520385742188	189.9057006835938	270.3805847167969	-465.77099609375
208	1.035	459.8018798828125	1401.908935546875	-545.0864868164062	524.860595703125	1396.5458984375	-246.1087188720703	444.2527770996094	948.5038452148438	-519.3770751953125	493.1753234863281	961.14501953125	-245.7581176757812	491.5467834472656	900.9005126953124	-499.0092163085938	237.1750946044922	280.3952026367188	-439.3471984863281	517.9847412109375	918.34423828125	-266.5325622558594	370.9877624511719	821.9918823242188	-533.469482421875	381.9784240722656	837.4706420898438	-197.6688079833984	327.2649841308594	948.5379028320312	-374.5870056152344	541.0350952148438	642.9091186523438	-555.9051513671875	405.8121032714844	394.9320068359375	-519.458984375	477.7612915039062	605.5775146484375	-527.92236328125	599.0570678710938	562.119873046875	-542.7045288085938	302.9479064941406	55.70395278930664	-268.9977111816406	481.0618286132812	456.2352905273438	-539.7122192382812	531.09912109375	523.4676513671875	-520.640625	505.2254028320312	610.578125	-225.5333709716797	406.2060546875	81.41177368164062	-474.418701171875	428.8275756835938	616.0139770507812	-214.3724822998047	500.4940490722656	515.5995483398438	-260.2243041992188	417.768798828125	517.9212646484375	-242.2888488769531	569.9096069335938	485.9721374511719	-543.069091796875	435.935546875	446.7855834960938	-256.2476196289062	535.1820068359375	393.8320007324219	-535.434814453125	457.4950561523438	329.6479187011719	-516.2870483398438	398.099853515625	327.7140197753906	-261.9051818847656	348.5189819335938	126.8309478759766	-532.7120971679688	325.2695007324219	372.1167602539062	-253.1277923583984	222.4192352294922	250.6197052001953	-413.8082275390625	336.2391662597656	246.3815002441406	-282.1312561035156	273.9268798828125	292.4991455078125	-269.5588073730469	297.23828125	259.4497985839844	-499.1461181640625	197.9126892089844	137.6845245361328	-301.3185424804688	372.9225158691406	53.71313858032227	-340.2279663085938	127.5884475708008	121.349983215332	-355.8997192382812	132.5450744628906	90.91059112548828	-382.8540954589844	119.8639068603516	101.6653442382812	-331.67919921875	216.5867156982422	260.1011352539062	-466.9660034179688
